<svg width="101" height="100" viewBox="0 0 101 100" fill="none" xmlns="http://www.w3.org/2000/svg">
<path d="M0.5 10C0.5 4.47715 4.97715 0 10.5 0H90.5C96.0228 0 100.5 4.47715 100.5 10V90C100.5 95.5228 96.0228 100 90.5 100H10.5C4.97715 100 0.5 95.5228 0.5 90V10Z" fill="#F6F6F6"/>
<path d="M68 45H33C31.6193 45 30.5 46.1193 30.5 47.5V55C30.5 56.3807 31.6193 57.5 33 57.5H68C69.3807 57.5 70.5 56.3807 70.5 55V47.5C70.5 46.1193 69.3807 45 68 45Z" stroke="#0098FF" stroke-width="2.75" stroke-linecap="round" stroke-linejoin="round"/>
<path d="M63 45V35C63 33.6739 62.4732 32.4021 61.5355 31.4645C60.5979 30.5268 59.3261 30 58 30H43C41.6739 30 40.4021 30.5268 39.4645 31.4645C38.5268 32.4021 38 33.6739 38 35V45M50.5 57.5V70M60.5 57.5V62.5M40.5 57.5V65" stroke="#0098FF" stroke-width="2.75" stroke-linecap="round" stroke-linejoin="round"/>
</svg>
