<svg width="101" height="100" viewBox="0 0 101 100" fill="none" xmlns="http://www.w3.org/2000/svg">
<path d="M0.5 10C0.5 4.47715 4.97715 0 10.5 0H90.5C96.0228 0 100.5 4.47715 100.5 10V90C100.5 95.5228 96.0228 100 90.5 100H10.5C4.97715 100 0.5 95.5228 0.5 90V10Z" fill="#F6F6F6"/>
<path d="M40.5 67.5C46.0228 67.5 50.5 63.0228 50.5 57.5C50.5 51.9772 46.0228 47.5 40.5 47.5C34.9772 47.5 30.5 51.9772 30.5 57.5C30.5 63.0228 34.9772 67.5 40.5 67.5Z" stroke="#0098FF" stroke-width="2.75" stroke-linecap="round" stroke-linejoin="round"/>
<path d="M47.625 50.375L68 30" stroke="#0098FF" stroke-width="2.75" stroke-linecap="round" stroke-linejoin="round"/>
<path d="M65.5 32.5L70.5 37.5" stroke="#0098FF" stroke-width="2.75" stroke-linecap="round" stroke-linejoin="round"/>
<path d="M58 40L63 45" stroke="#0098FF" stroke-width="2.75" stroke-linecap="round" stroke-linejoin="round"/>
</svg>
