<svg width="101" height="100" viewBox="0 0 101 100" fill="none" xmlns="http://www.w3.org/2000/svg">
<path d="M0.5 10C0.5 4.47715 4.97715 0 10.5 0H90.5C96.0228 0 100.5 4.47715 100.5 10V90C100.5 95.5228 96.0228 100 90.5 100H10.5C4.97715 100 0.5 95.5228 0.5 90V10Z" fill="#F6F6F6"/>
<path d="M38 60C34.8807 60 31.8891 58.8147 29.6835 56.7049C27.4778 54.5952 26.2386 51.7337 26.2386 48.75C26.2386 45.7663 27.4778 42.9048 29.6835 40.795C31.8891 38.6853 34.8807 37.5 38 37.5C38.7367 34.2179 40.8919 31.3337 43.9915 29.4818C47.091 27.6299 50.881 26.9619 54.5278 27.625C58.1745 28.288 61.3792 30.2277 63.4369 33.0173C65.4946 35.8069 66.2367 39.2179 65.5 42.5H68C70.3206 42.5 72.5462 43.4219 74.1872 45.0628C75.8281 46.7037 76.75 48.9293 76.75 51.25C76.75 53.5706 75.8281 55.7962 74.1872 57.4372C72.5462 59.0781 70.3206 60 68 60H38Z" stroke="#0098FF" stroke-width="2.75" stroke-linecap="round" stroke-linejoin="round"/>
<path d="M33 70H68" stroke="#0098FF" stroke-width="2.75" stroke-linecap="round" stroke-linejoin="round"/>
</svg>
